<svg style="width:150px;height:150px;border:1px solid var(--faint);border-radius:12px;background:#fff;" role="img" aria-label="QR-код на сайт лекции" width="4.5mm" height="4.5mm" version="1.1" viewBox="0 0 4.5 4.5" xmlns="http://www.w3.org/2000/svg">
<path d="M0.4,0.4H0.5V0.5H0.4z
M0.5,0.4H0.6V0.5H0.5z
M0.6,0.4H0.7V0.5H0.6z
M0.7,0.4H0.8V0.5H0.7z
M0.8,0.4H0.9V0.5H0.8z
M0.9,0.4H1V0.5H0.9z
M1,0.4H1.1V0.5H1z
M1.5,0.4H1.6V0.5H1.5z
M1.7,0.4H1.8V0.5H1.7z
M1.8,0.4H1.9V0.5H1.8z
M2.4,0.4H2.5V0.5H2.4z
M2.6,0.4H2.7V0.5H2.6z
M3,0.4H3.1V0.5H3z
M3.4,0.4H3.5V0.5H3.4z
M3.5,0.4H3.6V0.5H3.5z
M3.6,0.4H3.7V0.5H3.6z
M3.7,0.4H3.8V0.5H3.7z
M3.8,0.4H3.9V0.5H3.8z
M3.9,0.4H4V0.5H3.9z
M4,0.4H4.1V0.5H4z
M0.4,0.5H0.5V0.6H0.4z
M1,0.5H1.1V0.6H1z
M1.3,0.5H1.4V0.6H1.3z
M1.4,0.5H1.5V0.6H1.4z
M1.5,0.5H1.6V0.6H1.5z
M2.2,0.5H2.3V0.6H2.2z
M2.4,0.5H2.5V0.6H2.4z
M2.5,0.5H2.6V0.6H2.5z
M2.8,0.5H2.9V0.6H2.8z
M3.4,0.5H3.5V0.6H3.4z
M4,0.5H4.1V0.6H4z
M0.4,0.6H0.5V0.7H0.4z
M0.6,0.6H0.7V0.7H0.6z
M0.7,0.6H0.8V0.7H0.7z
M0.8,0.6H0.9V0.7H0.8z
M1,0.6H1.1V0.7H1z
M1.2,0.6H1.3V0.7H1.2z
M1.3,0.6H1.4V0.7H1.3z
M1.5,0.6H1.6V0.7H1.5z
M1.6,0.6H1.7V0.7H1.6z
M1.7,0.6H1.8V0.7H1.7z
M1.8,0.6H1.9V0.7H1.8z
M1.9,0.6H2V0.7H1.9z
M2,0.6H2.1V0.7H2z
M2.1,0.6H2.2V0.7H2.1z
M2.4,0.6H2.5V0.7H2.4z
M2.6,0.6H2.7V0.7H2.6z
M2.9,0.6H3V0.7H2.9z
M3,0.6H3.1V0.7H3z
M3.1,0.6H3.2V0.7H3.1z
M3.4,0.6H3.5V0.7H3.4z
M3.6,0.6H3.7V0.7H3.6z
M3.7,0.6H3.8V0.7H3.7z
M3.8,0.6H3.9V0.7H3.8z
M4,0.6H4.1V0.7H4z
M0.4,0.7H0.5V0.8H0.4z
M0.6,0.7H0.7V0.8H0.6z
M0.7,0.7H0.8V0.8H0.7z
M0.8,0.7H0.9V0.8H0.8z
M1,0.7H1.1V0.8H1z
M1.2,0.7H1.3V0.8H1.2z
M1.3,0.7H1.4V0.8H1.3z
M1.7,0.7H1.8V0.8H1.7z
M2,0.7H2.1V0.8H2z
M2.4,0.7H2.5V0.8H2.4z
M2.6,0.7H2.7V0.8H2.6z
M2.8,0.7H2.9V0.8H2.8z
M2.9,0.7H3V0.8H2.9z
M3,0.7H3.1V0.8H3z
M3.2,0.7H3.3V0.8H3.2z
M3.4,0.7H3.5V0.8H3.4z
M3.6,0.7H3.7V0.8H3.6z
M3.7,0.7H3.8V0.8H3.7z
M3.8,0.7H3.9V0.8H3.8z
M4,0.7H4.1V0.8H4z
M0.4,0.8H0.5V0.9H0.4z
M0.6,0.8H0.7V0.9H0.6z
M0.7,0.8H0.8V0.9H0.7z
M0.8,0.8H0.9V0.9H0.8z
M1,0.8H1.1V0.9H1z
M1.5,0.8H1.6V0.9H1.5z
M1.8,0.8H1.9V0.9H1.8z
M1.9,0.8H2V0.9H1.9z
M2.1,0.8H2.2V0.9H2.1z
M2.2,0.8H2.3V0.9H2.2z
M2.5,0.8H2.6V0.9H2.5z
M2.6,0.8H2.7V0.9H2.6z
M3,0.8H3.1V0.9H3z
M3.4,0.8H3.5V0.9H3.4z
M3.6,0.8H3.7V0.9H3.6z
M3.7,0.8H3.8V0.9H3.7z
M3.8,0.8H3.9V0.9H3.8z
M4,0.8H4.1V0.9H4z
M0.4,0.9H0.5V1H0.4z
M1,0.9H1.1V1H1z
M1.5,0.9H1.6V1H1.5z
M1.9,0.9H2V1H1.9z
M2.1,0.9H2.2V1H2.1z
M2.2,0.9H2.3V1H2.2z
M2.3,0.9H2.4V1H2.3z
M2.4,0.9H2.5V1H2.4z
M2.5,0.9H2.6V1H2.5z
M2.6,0.9H2.7V1H2.6z
M2.7,0.9H2.8V1H2.7z
M3,0.9H3.1V1H3z
M3.4,0.9H3.5V1H3.4z
M4,0.9H4.1V1H4z
M0.4,1H0.5V1.1H0.4z
M0.5,1H0.6V1.1H0.5z
M0.6,1H0.7V1.1H0.6z
M0.7,1H0.8V1.1H0.7z
M0.8,1H0.9V1.1H0.8z
M0.9,1H1V1.1H0.9z
M1,1H1.1V1.1H1z
M1.2,1H1.3V1.1H1.2z
M1.4,1H1.5V1.1H1.4z
M1.6,1H1.7V1.1H1.6z
M1.8,1H1.9V1.1H1.8z
M2,1H2.1V1.1H2z
M2.2,1H2.3V1.1H2.2z
M2.4,1H2.5V1.1H2.4z
M2.6,1H2.7V1.1H2.6z
M2.8,1H2.9V1.1H2.8z
M3,1H3.1V1.1H3z
M3.2,1H3.3V1.1H3.2z
M3.4,1H3.5V1.1H3.4z
M3.5,1H3.6V1.1H3.5z
M3.6,1H3.7V1.1H3.6z
M3.7,1H3.8V1.1H3.7z
M3.8,1H3.9V1.1H3.8z
M3.9,1H4V1.1H3.9z
M4,1H4.1V1.1H4z
M1.6,1.1H1.7V1.2H1.6z
M2,1.1H2.1V1.2H2z
M2.5,1.1H2.6V1.2H2.5z
M2.6,1.1H2.7V1.2H2.6z
M2.7,1.1H2.8V1.2H2.7z
M2.9,1.1H3V1.2H2.9z
M3.1,1.1H3.2V1.2H3.1z
M3.2,1.1H3.3V1.2H3.2z
M0.7,1.2H0.8V1.3H0.7z
M0.8,1.2H0.9V1.3H0.8z
M1,1.2H1.1V1.3H1z
M1.1,1.2H1.2V1.3H1.1z
M1.3,1.2H1.4V1.3H1.3z
M1.4,1.2H1.5V1.3H1.4z
M1.7,1.2H1.8V1.3H1.7z
M1.9,1.2H2V1.3H1.9z
M2.1,1.2H2.2V1.3H2.1z
M2.4,1.2H2.5V1.3H2.4z
M2.5,1.2H2.6V1.3H2.5z
M2.8,1.2H2.9V1.3H2.8z
M3.2,1.2H3.3V1.3H3.2z
M3.7,1.2H3.8V1.3H3.7z
M3.8,1.2H3.9V1.3H3.8z
M0.4,1.3H0.5V1.4H0.4z
M0.6,1.3H0.7V1.4H0.6z
M0.8,1.3H0.9V1.4H0.8z
M1.2,1.3H1.3V1.4H1.2z
M1.4,1.3H1.5V1.4H1.4z
M1.5,1.3H1.6V1.4H1.5z
M1.7,1.3H1.8V1.4H1.7z
M1.9,1.3H2V1.4H1.9z
M2.1,1.3H2.2V1.4H2.1z
M2.2,1.3H2.3V1.4H2.2z
M2.3,1.3H2.4V1.4H2.3z
M2.4,1.3H2.5V1.4H2.4z
M2.7,1.3H2.8V1.4H2.7z
M2.9,1.3H3V1.4H2.9z
M3,1.3H3.1V1.4H3z
M3.1,1.3H3.2V1.4H3.1z
M3.3,1.3H3.4V1.4H3.3z
M3.5,1.3H3.6V1.4H3.5z
M3.6,1.3H3.7V1.4H3.6z
M3.7,1.3H3.8V1.4H3.7z
M0.6,1.4H0.7V1.5H0.6z
M1,1.4H1.1V1.5H1z
M1.3,1.4H1.4V1.5H1.3z
M1.4,1.4H1.5V1.5H1.4z
M1.5,1.4H1.6V1.5H1.5z
M1.7,1.4H1.8V1.5H1.7z
M1.9,1.4H2V1.5H1.9z
M2,1.4H2.1V1.5H2z
M2.2,1.4H2.3V1.5H2.2z
M2.3,1.4H2.4V1.5H2.3z
M2.4,1.4H2.5V1.5H2.4z
M2.6,1.4H2.7V1.5H2.6z
M2.7,1.4H2.8V1.5H2.7z
M2.8,1.4H2.9V1.5H2.8z
M2.9,1.4H3V1.5H2.9z
M3.1,1.4H3.2V1.5H3.1z
M3.3,1.4H3.4V1.5H3.3z
M3.4,1.4H3.5V1.5H3.4z
M3.5,1.4H3.6V1.5H3.5z
M4,1.4H4.1V1.5H4z
M0.4,1.5H0.5V1.6H0.4z
M0.5,1.5H0.6V1.6H0.5z
M0.7,1.5H0.8V1.6H0.7z
M0.8,1.5H0.9V1.6H0.8z
M0.9,1.5H1V1.6H0.9z
M1.1,1.5H1.2V1.6H1.1z
M1.3,1.5H1.4V1.6H1.3z
M1.4,1.5H1.5V1.6H1.4z
M1.7,1.5H1.8V1.6H1.7z
M1.8,1.5H1.9V1.6H1.8z
M1.9,1.5H2V1.6H1.9z
M2.1,1.5H2.2V1.6H2.1z
M2.2,1.5H2.3V1.6H2.2z
M2.3,1.5H2.4V1.6H2.3z
M2.4,1.5H2.5V1.6H2.4z
M3,1.5H3.1V1.6H3z
M3.1,1.5H3.2V1.6H3.1z
M3.2,1.5H3.3V1.6H3.2z
M3.3,1.5H3.4V1.6H3.3z
M3.4,1.5H3.5V1.6H3.4z
M3.7,1.5H3.8V1.6H3.7z
M3.8,1.5H3.9V1.6H3.8z
M3.9,1.5H4V1.6H3.9z
M0.6,1.6H0.7V1.7H0.6z
M0.7,1.6H0.8V1.7H0.7z
M1,1.6H1.1V1.7H1z
M1.1,1.6H1.2V1.7H1.1z
M1.3,1.6H1.4V1.7H1.3z
M1.5,1.6H1.6V1.7H1.5z
M2,1.6H2.1V1.7H2z
M2.3,1.6H2.4V1.7H2.3z
M2.6,1.6H2.7V1.7H2.6z
M3.1,1.6H3.2V1.7H3.1z
M3.2,1.6H3.3V1.7H3.2z
M3.4,1.6H3.5V1.7H3.4z
M3.5,1.6H3.6V1.7H3.5z
M3.7,1.6H3.8V1.7H3.7z
M0.4,1.7H0.5V1.8H0.4z
M0.5,1.7H0.6V1.8H0.5z
M1.1,1.7H1.2V1.8H1.1z
M1.2,1.7H1.3V1.8H1.2z
M1.3,1.7H1.4V1.8H1.3z
M1.5,1.7H1.6V1.8H1.5z
M1.6,1.7H1.7V1.8H1.6z
M1.7,1.7H1.8V1.8H1.7z
M1.9,1.7H2V1.8H1.9z
M2.4,1.7H2.5V1.8H2.4z
M2.5,1.7H2.6V1.8H2.5z
M3,1.7H3.1V1.8H3z
M3.1,1.7H3.2V1.8H3.1z
M3.2,1.7H3.3V1.8H3.2z
M3.3,1.7H3.4V1.8H3.3z
M3.6,1.7H3.7V1.8H3.6z
M3.8,1.7H3.9V1.8H3.8z
M0.6,1.8H0.7V1.9H0.6z
M0.8,1.8H0.9V1.9H0.8z
M1,1.8H1.1V1.9H1z
M1.1,1.8H1.2V1.9H1.1z
M1.2,1.8H1.3V1.9H1.2z
M1.3,1.8H1.4V1.9H1.3z
M1.8,1.8H1.9V1.9H1.8z
M2,1.8H2.1V1.9H2z
M2.3,1.8H2.4V1.9H2.3z
M2.4,1.8H2.5V1.9H2.4z
M2.5,1.8H2.6V1.9H2.5z
M2.8,1.8H2.9V1.9H2.8z
M2.9,1.8H3V1.9H2.9z
M3.1,1.8H3.2V1.9H3.1z
M3.3,1.8H3.4V1.9H3.3z
M3.6,1.8H3.7V1.9H3.6z
M3.7,1.8H3.8V1.9H3.7z
M3.8,1.8H3.9V1.9H3.8z
M3.9,1.8H4V1.9H3.9z
M4,1.8H4.1V1.9H4z
M1.2,1.9H1.3V2H1.2z
M1.6,1.9H1.7V2H1.6z
M1.7,1.9H1.8V2H1.7z
M1.8,1.9H1.9V2H1.8z
M1.9,1.9H2V2H1.9z
M2,1.9H2.1V2H2z
M2.2,1.9H2.3V2H2.2z
M2.3,1.9H2.4V2H2.3z
M2.7,1.9H2.8V2H2.7z
M3,1.9H3.1V2H3z
M3.1,1.9H3.2V2H3.1z
M3.5,1.9H3.6V2H3.5z
M3.7,1.9H3.8V2H3.7z
M3.8,1.9H3.9V2H3.8z
M3.9,1.9H4V2H3.9z
M0.4,2H0.5V2.1H0.4z
M0.7,2H0.8V2.1H0.7z
M1,2H1.1V2.1H1z
M1.2,2H1.3V2.1H1.2z
M1.5,2H1.6V2.1H1.5z
M1.6,2H1.7V2.1H1.6z
M1.8,2H1.9V2.1H1.8z
M2.1,2H2.2V2.1H2.1z
M2.2,2H2.3V2.1H2.2z
M2.3,2H2.4V2.1H2.3z
M2.5,2H2.6V2.1H2.5z
M2.6,2H2.7V2.1H2.6z
M2.9,2H3V2.1H2.9z
M3.1,2H3.2V2.1H3.1z
M3.2,2H3.3V2.1H3.2z
M3.4,2H3.5V2.1H3.4z
M3.8,2H3.9V2.1H3.8z
M0.5,2.1H0.6V2.2H0.5z
M0.7,2.1H0.8V2.2H0.7z
M1.1,2.1H1.2V2.2H1.1z
M1.2,2.1H1.3V2.2H1.2z
M1.3,2.1H1.4V2.2H1.3z
M1.5,2.1H1.6V2.2H1.5z
M1.8,2.1H1.9V2.2H1.8z
M2.3,2.1H2.4V2.2H2.3z
M2.4,2.1H2.5V2.2H2.4z
M2.7,2.1H2.8V2.2H2.7z
M2.9,2.1H3V2.2H2.9z
M3,2.1H3.1V2.2H3z
M3.1,2.1H3.2V2.2H3.1z
M3.3,2.1H3.4V2.2H3.3z
M3.7,2.1H3.8V2.2H3.7z
M3.9,2.1H4V2.2H3.9z
M0.4,2.2H0.5V2.3H0.4z
M0.7,2.2H0.8V2.3H0.7z
M0.9,2.2H1V2.3H0.9z
M1,2.2H1.1V2.3H1z
M1.2,2.2H1.3V2.3H1.2z
M1.3,2.2H1.4V2.3H1.3z
M1.5,2.2H1.6V2.3H1.5z
M1.6,2.2H1.7V2.3H1.6z
M1.7,2.2H1.8V2.3H1.7z
M1.8,2.2H1.9V2.3H1.8z
M2.2,2.2H2.3V2.3H2.2z
M2.3,2.2H2.4V2.3H2.3z
M2.4,2.2H2.5V2.3H2.4z
M2.7,2.2H2.8V2.3H2.7z
M2.9,2.2H3V2.3H2.9z
M3.1,2.2H3.2V2.3H3.1z
M3.3,2.2H3.4V2.3H3.3z
M3.4,2.2H3.5V2.3H3.4z
M3.7,2.2H3.8V2.3H3.7z
M4,2.2H4.1V2.3H4z
M0.7,2.3H0.8V2.4H0.7z
M1.3,2.3H1.4V2.4H1.3z
M1.4,2.3H1.5V2.4H1.4z
M1.5,2.3H1.6V2.4H1.5z
M1.9,2.3H2V2.4H1.9z
M2,2.3H2.1V2.4H2z
M2.3,2.3H2.4V2.4H2.3z
M2.5,2.3H2.6V2.4H2.5z
M2.7,2.3H2.8V2.4H2.7z
M2.8,2.3H2.9V2.4H2.8z
M2.9,2.3H3V2.4H2.9z
M3.3,2.3H3.4V2.4H3.3z
M3.4,2.3H3.5V2.4H3.4z
M3.7,2.3H3.8V2.4H3.7z
M0.6,2.4H0.7V2.5H0.6z
M0.8,2.4H0.9V2.5H0.8z
M1,2.4H1.1V2.5H1z
M1.2,2.4H1.3V2.5H1.2z
M1.4,2.4H1.5V2.5H1.4z
M1.7,2.4H1.8V2.5H1.7z
M1.9,2.4H2V2.5H1.9z
M2.1,2.4H2.2V2.5H2.1z
M2.2,2.4H2.3V2.5H2.2z
M2.4,2.4H2.5V2.5H2.4z
M2.5,2.4H2.6V2.5H2.5z
M2.6,2.4H2.7V2.5H2.6z
M3,2.4H3.1V2.5H3z
M3.2,2.4H3.3V2.5H3.2z
M3.3,2.4H3.4V2.5H3.3z
M3.4,2.4H3.5V2.5H3.4z
M3.6,2.4H3.7V2.5H3.6z
M3.7,2.4H3.8V2.5H3.7z
M0.6,2.5H0.7V2.6H0.6z
M0.7,2.5H0.8V2.6H0.7z
M0.9,2.5H1V2.6H0.9z
M1.2,2.5H1.3V2.6H1.2z
M1.3,2.5H1.4V2.6H1.3z
M1.4,2.5H1.5V2.6H1.4z
M1.5,2.5H1.6V2.6H1.5z
M1.8,2.5H1.9V2.6H1.8z
M1.9,2.5H2V2.6H1.9z
M2,2.5H2.1V2.6H2z
M2.1,2.5H2.2V2.6H2.1z
M2.4,2.5H2.5V2.6H2.4z
M2.5,2.5H2.6V2.6H2.5z
M2.7,2.5H2.8V2.6H2.7z
M2.9,2.5H3V2.6H2.9z
M3.1,2.5H3.2V2.6H3.1z
M3.2,2.5H3.3V2.6H3.2z
M3.5,2.5H3.6V2.6H3.5z
M3.6,2.5H3.7V2.6H3.6z
M0.4,2.6H0.5V2.7H0.4z
M0.6,2.6H0.7V2.7H0.6z
M0.7,2.6H0.8V2.7H0.7z
M1,2.6H1.1V2.7H1z
M1.4,2.6H1.5V2.7H1.4z
M1.6,2.6H1.7V2.7H1.6z
M1.7,2.6H1.8V2.7H1.7z
M2.3,2.6H2.4V2.7H2.3z
M2.4,2.6H2.5V2.7H2.4z
M2.6,2.6H2.7V2.7H2.6z
M2.7,2.6H2.8V2.7H2.7z
M2.8,2.6H2.9V2.7H2.8z
M2.9,2.6H3V2.7H2.9z
M3.1,2.6H3.2V2.7H3.1z
M3.4,2.6H3.5V2.7H3.4z
M3.6,2.6H3.7V2.7H3.6z
M3.9,2.6H4V2.7H3.9z
M4,2.6H4.1V2.7H4z
M0.4,2.7H0.5V2.8H0.4z
M0.6,2.7H0.7V2.8H0.6z
M0.9,2.7H1V2.8H0.9z
M1.2,2.7H1.3V2.8H1.2z
M1.4,2.7H1.5V2.8H1.4z
M1.5,2.7H1.6V2.8H1.5z
M1.6,2.7H1.7V2.8H1.6z
M2.1,2.7H2.2V2.8H2.1z
M2.3,2.7H2.4V2.8H2.3z
M2.5,2.7H2.6V2.8H2.5z
M3,2.7H3.1V2.8H3z
M3.1,2.7H3.2V2.8H3.1z
M3.2,2.7H3.3V2.8H3.2z
M3.3,2.7H3.4V2.8H3.3z
M3.4,2.7H3.5V2.8H3.4z
M3.5,2.7H3.6V2.8H3.5z
M3.7,2.7H3.8V2.8H3.7z
M3.8,2.7H3.9V2.8H3.8z
M3.9,2.7H4V2.8H3.9z
M0.5,2.8H0.6V2.9H0.5z
M0.7,2.8H0.8V2.9H0.7z
M0.8,2.8H0.9V2.9H0.8z
M0.9,2.8H1V2.9H0.9z
M1,2.8H1.1V2.9H1z
M1.2,2.8H1.3V2.9H1.2z
M1.4,2.8H1.5V2.9H1.4z
M1.6,2.8H1.7V2.9H1.6z
M2.1,2.8H2.2V2.9H2.1z
M2.5,2.8H2.6V2.9H2.5z
M2.6,2.8H2.7V2.9H2.6z
M2.7,2.8H2.8V2.9H2.7z
M2.9,2.8H3V2.9H2.9z
M3,2.8H3.1V2.9H3z
M3.4,2.8H3.5V2.9H3.4z
M3.5,2.8H3.6V2.9H3.5z
M3.7,2.8H3.8V2.9H3.7z
M3.9,2.8H4V2.9H3.9z
M0.4,2.9H0.5V3H0.4z
M0.5,2.9H0.6V3H0.5z
M0.6,2.9H0.7V3H0.6z
M0.7,2.9H0.8V3H0.7z
M0.8,2.9H0.9V3H0.8z
M1.2,2.9H1.3V3H1.2z
M1.3,2.9H1.4V3H1.3z
M1.4,2.9H1.5V3H1.4z
M1.5,2.9H1.6V3H1.5z
M1.6,2.9H1.7V3H1.6z
M1.7,2.9H1.8V3H1.7z
M1.8,2.9H1.9V3H1.8z
M1.9,2.9H2V3H1.9z
M2.1,2.9H2.2V3H2.1z
M2.2,2.9H2.3V3H2.2z
M2.4,2.9H2.5V3H2.4z
M2.8,2.9H2.9V3H2.8z
M3,2.9H3.1V3H3z
M3.1,2.9H3.2V3H3.1z
M3.2,2.9H3.3V3H3.2z
M3.3,2.9H3.4V3H3.3z
M3.6,2.9H3.7V3H3.6z
M3.7,2.9H3.8V3H3.7z
M3.8,2.9H3.9V3H3.8z
M0.4,3H0.5V3.1H0.4z
M0.5,3H0.6V3.1H0.5z
M0.7,3H0.8V3.1H0.7z
M0.8,3H0.9V3.1H0.8z
M0.9,3H1V3.1H0.9z
M1,3H1.1V3.1H1z
M1.1,3H1.2V3.1H1.1z
M1.2,3H1.3V3.1H1.2z
M1.4,3H1.5V3.1H1.4z
M1.7,3H1.8V3.1H1.7z
M2.1,3H2.2V3.1H2.1z
M2.2,3H2.3V3.1H2.2z
M2.3,3H2.4V3.1H2.3z
M2.4,3H2.5V3.1H2.4z
M2.6,3H2.7V3.1H2.6z
M3,3H3.1V3.1H3z
M3.1,3H3.2V3.1H3.1z
M3.4,3H3.5V3.1H3.4z
M3.7,3H3.8V3.1H3.7z
M3.8,3H3.9V3.1H3.8z
M4,3H4.1V3.1H4z
M0.4,3.1H0.5V3.2H0.4z
M0.9,3.1H1V3.2H0.9z
M1.3,3.1H1.4V3.2H1.3z
M2,3.1H2.1V3.2H2z
M2.3,3.1H2.4V3.2H2.3z
M2.5,3.1H2.6V3.2H2.5z
M2.6,3.1H2.7V3.2H2.6z
M2.8,3.1H2.9V3.2H2.8z
M3,3.1H3.1V3.2H3z
M3.3,3.1H3.4V3.2H3.3z
M3.5,3.1H3.6V3.2H3.5z
M3.6,3.1H3.7V3.2H3.6z
M3.7,3.1H3.8V3.2H3.7z
M3.8,3.1H3.9V3.2H3.8z
M0.4,3.2H0.5V3.3H0.4z
M0.7,3.2H0.8V3.3H0.7z
M0.9,3.2H1V3.3H0.9z
M1,3.2H1.1V3.3H1z
M1.2,3.2H1.3V3.3H1.2z
M1.3,3.2H1.4V3.3H1.3z
M1.5,3.2H1.6V3.3H1.5z
M1.6,3.2H1.7V3.3H1.6z
M1.7,3.2H1.8V3.3H1.7z
M1.9,3.2H2V3.3H1.9z
M2.1,3.2H2.2V3.3H2.1z
M2.2,3.2H2.3V3.3H2.2z
M2.5,3.2H2.6V3.3H2.5z
M2.6,3.2H2.7V3.3H2.6z
M2.7,3.2H2.8V3.3H2.7z
M2.9,3.2H3V3.3H2.9z
M3.1,3.2H3.2V3.3H3.1z
M3.2,3.2H3.3V3.3H3.2z
M3.3,3.2H3.4V3.3H3.3z
M3.4,3.2H3.5V3.3H3.4z
M3.5,3.2H3.6V3.3H3.5z
M3.6,3.2H3.7V3.3H3.6z
M3.7,3.2H3.8V3.3H3.7z
M3.8,3.2H3.9V3.3H3.8z
M3.9,3.2H4V3.3H3.9z
M4,3.2H4.1V3.3H4z
M1.2,3.3H1.3V3.4H1.2z
M1.6,3.3H1.7V3.4H1.6z
M1.8,3.3H1.9V3.4H1.8z
M2.1,3.3H2.2V3.4H2.1z
M2.3,3.3H2.4V3.4H2.3z
M2.6,3.3H2.7V3.4H2.6z
M3.2,3.3H3.3V3.4H3.2z
M3.6,3.3H3.7V3.4H3.6z
M3.7,3.3H3.8V3.4H3.7z
M3.8,3.3H3.9V3.4H3.8z
M3.9,3.3H4V3.4H3.9z
M0.4,3.4H0.5V3.5H0.4z
M0.5,3.4H0.6V3.5H0.5z
M0.6,3.4H0.7V3.5H0.6z
M0.7,3.4H0.8V3.5H0.7z
M0.8,3.4H0.9V3.5H0.8z
M0.9,3.4H1V3.5H0.9z
M1,3.4H1.1V3.5H1z
M1.2,3.4H1.3V3.5H1.2z
M1.3,3.4H1.4V3.5H1.3z
M1.7,3.4H1.8V3.5H1.7z
M1.9,3.4H2V3.5H1.9z
M2,3.4H2.1V3.5H2z
M2.1,3.4H2.2V3.5H2.1z
M2.2,3.4H2.3V3.5H2.2z
M2.5,3.4H2.6V3.5H2.5z
M2.7,3.4H2.8V3.5H2.7z
M2.9,3.4H3V3.5H2.9z
M3.2,3.4H3.3V3.5H3.2z
M3.4,3.4H3.5V3.5H3.4z
M3.6,3.4H3.7V3.5H3.6z
M3.7,3.4H3.8V3.5H3.7z
M3.8,3.4H3.9V3.5H3.8z
M4,3.4H4.1V3.5H4z
M0.4,3.5H0.5V3.6H0.4z
M1,3.5H1.1V3.6H1z
M1.3,3.5H1.4V3.6H1.3z
M1.6,3.5H1.7V3.6H1.6z
M1.8,3.5H1.9V3.6H1.8z
M2,3.5H2.1V3.6H2z
M2.2,3.5H2.3V3.6H2.2z
M2.4,3.5H2.5V3.6H2.4z
M2.5,3.5H2.6V3.6H2.5z
M2.6,3.5H2.7V3.6H2.6z
M2.8,3.5H2.9V3.6H2.8z
M2.9,3.5H3V3.6H2.9z
M3.1,3.5H3.2V3.6H3.1z
M3.2,3.5H3.3V3.6H3.2z
M3.6,3.5H3.7V3.6H3.6z
M3.7,3.5H3.8V3.6H3.7z
M3.9,3.5H4V3.6H3.9z
M4,3.5H4.1V3.6H4z
M0.4,3.6H0.5V3.7H0.4z
M0.6,3.6H0.7V3.7H0.6z
M0.7,3.6H0.8V3.7H0.7z
M0.8,3.6H0.9V3.7H0.8z
M1,3.6H1.1V3.7H1z
M1.2,3.6H1.3V3.7H1.2z
M1.4,3.6H1.5V3.7H1.4z
M1.5,3.6H1.6V3.7H1.5z
M1.6,3.6H1.7V3.7H1.6z
M1.7,3.6H1.8V3.7H1.7z
M1.9,3.6H2V3.7H1.9z
M2.2,3.6H2.3V3.7H2.2z
M2.4,3.6H2.5V3.7H2.4z
M2.7,3.6H2.8V3.7H2.7z
M2.8,3.6H2.9V3.7H2.8z
M3,3.6H3.1V3.7H3z
M3.1,3.6H3.2V3.7H3.1z
M3.2,3.6H3.3V3.7H3.2z
M3.3,3.6H3.4V3.7H3.3z
M3.4,3.6H3.5V3.7H3.4z
M3.5,3.6H3.6V3.7H3.5z
M3.6,3.6H3.7V3.7H3.6z
M3.9,3.6H4V3.7H3.9z
M4,3.6H4.1V3.7H4z
M0.4,3.7H0.5V3.8H0.4z
M0.6,3.7H0.7V3.8H0.6z
M0.7,3.7H0.8V3.8H0.7z
M0.8,3.7H0.9V3.8H0.8z
M1,3.7H1.1V3.8H1z
M1.2,3.7H1.3V3.8H1.2z
M1.4,3.7H1.5V3.8H1.4z
M1.6,3.7H1.7V3.8H1.6z
M1.7,3.7H1.8V3.8H1.7z
M1.9,3.7H2V3.8H1.9z
M2,3.7H2.1V3.8H2z
M2.1,3.7H2.2V3.8H2.1z
M2.3,3.7H2.4V3.8H2.3z
M2.4,3.7H2.5V3.8H2.4z
M2.6,3.7H2.7V3.8H2.6z
M3,3.7H3.1V3.8H3z
M3.2,3.7H3.3V3.8H3.2z
M3.4,3.7H3.5V3.8H3.4z
M3.8,3.7H3.9V3.8H3.8z
M0.4,3.8H0.5V3.9H0.4z
M0.6,3.8H0.7V3.9H0.6z
M0.7,3.8H0.8V3.9H0.7z
M0.8,3.8H0.9V3.9H0.8z
M1,3.8H1.1V3.9H1z
M1.3,3.8H1.4V3.9H1.3z
M1.4,3.8H1.5V3.9H1.4z
M1.5,3.8H1.6V3.9H1.5z
M1.6,3.8H1.7V3.9H1.6z
M1.8,3.8H1.9V3.9H1.8z
M1.9,3.8H2V3.9H1.9z
M2.1,3.8H2.2V3.9H2.1z
M2.2,3.8H2.3V3.9H2.2z
M2.5,3.8H2.6V3.9H2.5z
M2.8,3.8H2.9V3.9H2.8z
M2.9,3.8H3V3.9H2.9z
M3.2,3.8H3.3V3.9H3.2z
M3.6,3.8H3.7V3.9H3.6z
M3.8,3.8H3.9V3.9H3.8z
M3.9,3.8H4V3.9H3.9z
M4,3.8H4.1V3.9H4z
M0.4,3.9H0.5V4H0.4z
M1,3.9H1.1V4H1z
M1.4,3.9H1.5V4H1.4z
M1.6,3.9H1.7V4H1.6z
M1.7,3.9H1.8V4H1.7z
M1.8,3.9H1.9V4H1.8z
M1.9,3.9H2V4H1.9z
M2.1,3.9H2.2V4H2.1z
M2.2,3.9H2.3V4H2.2z
M2.5,3.9H2.6V4H2.5z
M3.4,3.9H3.5V4H3.4z
M3.5,3.9H3.6V4H3.5z
M3.6,3.9H3.7V4H3.6z
M3.7,3.9H3.8V4H3.7z
M3.8,3.9H3.9V4H3.8z
M3.9,3.9H4V4H3.9z
M4,3.9H4.1V4H4z
M0.4,4H0.5V4.1H0.4z
M0.5,4H0.6V4.1H0.5z
M0.6,4H0.7V4.1H0.6z
M0.7,4H0.8V4.1H0.7z
M0.8,4H0.9V4.1H0.8z
M0.9,4H1V4.1H0.9z
M1,4H1.1V4.1H1z
M1.5,4H1.6V4.1H1.5z
M1.6,4H1.7V4.1H1.6z
M1.7,4H1.8V4.1H1.7z
M1.9,4H2V4.1H1.9z
M2,4H2.1V4.1H2z
M2.1,4H2.2V4.1H2.1z
M2.4,4H2.5V4.1H2.4z
M2.8,4H2.9V4.1H2.8z
M3.2,4H3.3V4.1H3.2z
M3.7,4H3.8V4.1H3.7z
M4,4H4.1V4.1H4z" id="qr-path" fill="#000000" fill-opacity="1" fill-rule="nonzero" stroke="none" />
</svg>
